<svg width="14" height="14" viewBox="0 0 14 14" fill="none" xmlns="http://www.w3.org/2000/svg">
<path d="M5.12292 7.72369C5.12292 7.54831 4.98067 7.40623 4.80515 7.40623H3.69626C3.52094 7.40623 3.37866 7.54831 3.37866 7.72369V8.83244C3.37866 9.00804 3.52094 9.15018 3.69626 9.15018H4.80515C4.98067 9.15018 5.12292 9.00804 5.12292 8.83244V7.72369Z" fill="#085ACC"/>
<path d="M7.89417 7.72369C7.89417 7.54831 7.7519 7.40623 7.57672 7.40623H6.4677C6.29238 7.40623 6.1501 7.54831 6.1501 7.72369V8.83244C6.1501 9.00804 6.29238 9.15018 6.4677 9.15018H7.57672C7.7519 9.15018 7.89417 9.00804 7.89417 8.83244V7.72369Z" fill="#085ACC"/>
<path d="M10.6656 7.72369C10.6656 7.54831 10.5233 7.40623 10.348 7.40623H9.23911C9.06359 7.40623 8.92134 7.54831 8.92134 7.72369V8.83244C8.92134 9.00804 9.06359 9.15018 9.23911 9.15018H10.348C10.5233 9.15018 10.6656 9.00804 10.6656 8.83244V7.72369Z" fill="#085ACC"/>
<path d="M5.12292 10.4953C5.12292 10.3196 4.98067 10.1776 4.80515 10.1776H3.69626C3.52094 10.1776 3.37866 10.3196 3.37866 10.4953V11.6038C3.37866 11.7793 3.52094 11.9214 3.69626 11.9214H4.80515C4.98067 11.9214 5.12292 11.7793 5.12292 11.6038V10.4953Z" fill="#085ACC"/>
<path d="M7.89417 10.4953C7.89417 10.3196 7.7519 10.1776 7.57672 10.1776H6.4677C6.29238 10.1776 6.1501 10.3196 6.1501 10.4953V11.6038C6.1501 11.7793 6.29238 11.9214 6.4677 11.9214H7.57672C7.7519 11.9214 7.89417 11.7793 7.89417 11.6038V10.4953Z" fill="#085ACC"/>
<path d="M10.6656 10.4953C10.6656 10.3196 10.5233 10.1776 10.3481 10.1776H9.23911C9.06359 10.1776 8.92134 10.3196 8.92134 10.4953V11.6038C8.92134 11.7793 9.06359 11.9214 9.23911 11.9214H10.3481C10.5233 11.9214 10.6656 11.7793 10.6656 11.6038V10.4953Z" fill="#085ACC"/>
<path d="M12.6484 1.55885V3.25237C12.6484 4.01783 12.0274 4.63467 11.2621 4.63467H10.3876C9.62218 4.63467 8.99298 4.01783 8.99298 3.25237V1.55276H5.05127V3.25237C5.05127 4.01783 4.4221 4.63467 3.65682 4.63467H2.78212C2.01681 4.63467 1.39587 4.01783 1.39587 3.25237V1.55885C0.72698 1.57901 0.177338 2.13249 0.177338 2.8128V12.7377C0.177338 13.4308 0.739111 14 1.43221 14H12.612C13.3041 14 13.8669 13.4296 13.8669 12.7377V2.8128C13.8669 2.13249 13.3173 1.57901 12.6484 1.55885ZM12.2422 12.1196C12.2422 12.4192 11.9994 12.6622 11.6997 12.6622H2.32064C2.021 12.6622 1.77814 12.4192 1.77814 12.1196V6.99307C1.77814 6.69343 2.02097 6.45043 2.32064 6.45043H11.6997C11.9993 6.45043 12.2422 6.69343 12.2422 6.99307L12.2422 12.1196Z" fill="#085ACC"/>
<path d="M2.77904 3.72676H3.64407C3.90663 3.72676 4.11952 3.51418 4.11952 3.25162V0.475305C4.11952 0.212716 3.90663 0 3.64407 0H2.77904C2.51645 0 2.30359 0.212716 2.30359 0.475305V3.25162C2.30359 3.51418 2.51645 3.72676 2.77904 3.72676Z" fill="#085ACC"/>
<path d="M10.3765 3.72676H11.2415C11.5039 3.72676 11.7168 3.51418 11.7168 3.25162V0.475305C11.7168 0.212716 11.5039 0 11.2415 0H10.3765C10.1139 0 9.90103 0.212716 9.90103 0.475305V3.25162C9.90103 3.51418 10.1139 3.72676 10.3765 3.72676Z" fill="#085ACC"/>
</svg>
