<svg width="16" height="16" viewBox="0 0 16 16" fill="none" xmlns="http://www.w3.org/2000/svg">
<path d="M11.2004 0H4.80206C2.15609 0 0.00333405 2.15276 0.00333405 4.79872V8.53106C0.00333405 11.0877 2.01293 13.1837 4.53546 13.3226V15.5471C4.53546 15.7969 4.73914 16 4.98947 16C5.10917 16 5.22248 15.9525 5.30805 15.867L5.80819 15.3668C7.12144 14.0533 8.86791 13.3298 10.7255 13.3298H11.2004C13.8463 13.3298 15.9991 11.177 15.9991 8.53106V4.79872C15.9991 2.15276 13.8463 0 11.2004 0ZM4.53546 7.73127C3.94735 7.73127 3.46908 7.253 3.46908 6.66489C3.46908 6.07678 3.94735 5.59851 4.53546 5.59851C5.12357 5.59851 5.60184 6.07678 5.60184 6.66489C5.60184 7.253 5.1233 7.73127 4.53546 7.73127ZM8.0012 7.73127C7.41309 7.73127 6.93482 7.253 6.93482 6.66489C6.93482 6.07678 7.41309 5.59851 8.0012 5.59851C8.58931 5.59851 9.06759 6.07678 9.06759 6.66489C9.06759 7.253 8.58905 7.73127 8.0012 7.73127ZM11.4669 7.73127C10.8788 7.73127 10.4006 7.253 10.4006 6.66489C10.4006 6.07678 10.8788 5.59851 11.4669 5.59851C12.0551 5.59851 12.5333 6.07678 12.5333 6.66489C12.5333 7.253 12.0548 7.73127 11.4669 7.73127Z" fill="#18B0D5"/>
</svg>
