<svg width="16" height="16" viewBox="0 0 16 16" fill="none" xmlns="http://www.w3.org/2000/svg">
<path d="M5.394 8.08208L-2.86102e-06 11.4921V4.52808L5.394 8.08208Z" fill="#18B0D5"/>
<path d="M16 4.52808V11.4921L10.606 8.08208L16 4.52808Z" fill="#18B0D5"/>
<path d="M0.999994 2.5H15C15.499 2.5 15.895 2.872 15.97 3.351L8 8.602L0.0299931 3.351C0.104993 2.872 0.500994 2.5 0.999994 2.5Z" fill="#18B0D5"/>
<path d="M6.31 8.68606L7.725 9.61806C7.809 9.67306 7.904 9.70006 8 9.70006C8.096 9.70006 8.191 9.67306 8.275 9.61806L9.69 8.68506L15.968 12.6561C15.891 13.1311 15.497 13.5001 15 13.5001H0.999991C0.502991 13.5001 0.10899 13.1311 0.0319901 12.6561L6.31 8.68606Z" fill="#18B0D5"/>
</svg>
