<svg width="15" height="14" viewBox="0 0 15 14" fill="none" xmlns="http://www.w3.org/2000/svg">
<path d="M10.2442 0H4.64566C2.33044 0 0.446777 1.88366 0.446777 4.19888V7.46468C0.446777 9.70175 2.20518 11.5357 4.41239 11.6573V13.6037C4.41239 13.8222 4.59061 14 4.80965 14C4.91439 14 5.01353 13.9585 5.08841 13.8836L5.52602 13.446C6.67512 12.2967 8.20328 11.6636 9.82871 11.6636H10.2442C12.5594 11.6636 14.443 9.77989 14.443 7.46468V4.19888C14.443 1.88366 12.5594 0 10.2442 0ZM4.41239 6.76486C3.89779 6.76486 3.4793 6.34637 3.4793 5.83178C3.4793 5.31718 3.89779 4.89869 4.41239 4.89869C4.92698 4.89869 5.34547 5.31718 5.34547 5.83178C5.34547 6.34637 4.92675 6.76486 4.41239 6.76486ZM7.44491 6.76486C6.93032 6.76486 6.51183 6.34637 6.51183 5.83178C6.51183 5.31718 6.93032 4.89869 7.44491 4.89869C7.95951 4.89869 8.378 5.31718 8.378 5.83178C8.378 6.34637 7.95927 6.76486 7.44491 6.76486ZM10.4774 6.76486C9.96284 6.76486 9.54435 6.34637 9.54435 5.83178C9.54435 5.31718 9.96284 4.89869 10.4774 4.89869C10.992 4.89869 11.4105 5.31718 11.4105 5.83178C11.4105 6.34637 10.9918 6.76486 10.4774 6.76486Z" fill="#B9B9B9"/>
</svg>
