<svg width="19" height="12" viewBox="0 0 19 12" fill="none" xmlns="http://www.w3.org/2000/svg">
<path d="M10.5663 2.96237C9.73097 2.96237 9.05408 3.63926 9.05408 4.47361C9.05408 5.30849 9.73097 5.98456 10.5663 5.98456C11.4003 5.98456 12.0772 5.30855 12.0772 4.47361C12.0772 3.63962 11.4003 2.96237 10.5663 2.96237Z" fill="#B9B9B9"/>
<path d="M18.2998 5.69853C15.6064 1.91748 12.6326 0 9.46102 0C4.10893 0 0.296474 5.47661 0.136311 5.70996C-0.0626856 5.99976 -0.0420022 6.38762 0.186575 6.65509C3.12367 10.1086 6.20726 11.8594 9.35077 11.8594C14.7072 11.8594 18.1679 6.80017 18.3118 6.58503C18.4931 6.31579 18.4888 5.96299 18.2998 5.69853ZM9.22214 9.6801C7.15074 9.6801 5.47161 8.00116 5.47161 5.9297C5.47161 3.85812 7.1508 2.17894 9.22214 2.17894C11.2937 2.17894 12.9727 3.85812 12.9727 5.9297C12.9728 8.00116 11.2938 9.6801 9.22214 9.6801Z" fill="#B9B9B9"/>
</svg>
