<svg width="25" height="24" viewBox="0 0 25 24" fill="none" xmlns="http://www.w3.org/2000/svg">
<path d="M0 12C0 5.37258 5.54829 0 12.3924 0C19.2369 0 24.7849 5.37258 24.7849 12C24.7849 18.6274 19.2369 24 12.3924 24C5.54829 24 0 18.6274 0 12Z" fill="black"/>
<path fill-rule="evenodd" clip-rule="evenodd" d="M12.1416 0C12.0831 4.93687 11.7498 7.69981 9.85066 9.53871C7.95166 11.3777 5.09834 11.7005 0 11.7571V12.4736C5.09834 12.5303 7.95166 12.8531 9.85066 14.6921C11.7199 16.5021 12.0722 19.2074 12.1387 24H12.8845C12.9509 19.2074 13.3033 16.5021 15.1722 14.6921C17.0415 12.882 19.8355 12.5407 24.7849 12.4765V11.7543C19.8355 11.6899 17.0415 11.3488 15.1722 9.53871C13.2734 7.69981 12.9401 4.93687 12.8816 0H12.1416Z" fill="white"/>
</svg>
