<svg width="18" height="18" viewBox="0 0 18 18" fill="none" xmlns="http://www.w3.org/2000/svg">
<path d="M4.96993 4.09637C4.71033 3.83657 4.28916 3.83657 4.02957 4.09637C3.06572 5.06022 2.59199 6.4029 2.72966 7.7804C2.76401 8.12356 3.0531 8.37935 3.39071 8.37935C3.41289 8.37935 3.43525 8.37823 3.45743 8.37601C3.82299 8.33945 4.08965 8.01334 4.05309 7.64803C3.95511 6.66911 4.28941 5.71725 4.96993 5.0367C5.22973 4.77714 5.22973 4.35593 4.96993 4.09637Z" fill="#18B0D5"/>
<path d="M7.60345 0C3.41089 0 0 3.41089 0 7.60345C0 11.796 3.41089 15.2069 7.60345 15.2069C11.796 15.2069 15.2069 11.796 15.2069 7.60345C15.2069 3.41089 11.796 0 7.60345 0ZM7.60345 13.8768C4.14422 13.8768 1.33007 11.0627 1.33007 7.60345C1.33007 4.14422 4.14422 1.33007 7.60345 1.33007C11.0625 1.33007 13.8768 4.14422 13.8768 7.60345C13.8768 11.0627 11.0627 13.8768 7.60345 13.8768Z" fill="#18B0D5"/>
<path d="M17.8051 16.8648L12.9726 12.0323C12.7128 11.7725 12.2921 11.7725 12.0323 12.0323C11.7725 12.2919 11.7725 12.713 12.0323 12.9726L16.8648 17.8051C16.9947 17.935 17.1647 18 17.335 18C17.5052 18 17.6752 17.935 17.8051 17.8051C18.0649 17.5455 18.0649 17.1244 17.8051 16.8648Z" fill="#18B0D5"/>
</svg>
