<svg width="20" height="20" viewBox="0 0 20 20" fill="none" xmlns="http://www.w3.org/2000/svg">
<path d="M20 10C20 13.4297 18.2773 16.4531 15.6445 18.2539C15.2227 18.543 14.7773 18.8008 14.3125 19.0234C13.0078 19.6484 11.543 20 10 20C9.39844 20 8.80859 19.9453 8.23828 19.8438C7.41797 19.6992 6.63281 19.4531 5.89453 19.1211C2.41797 17.5547 0 14.0586 0 10C0 5.54688 2.91406 1.76953 6.9375 0.476562C7.03906 0.445312 7.13672 0.414062 7.23828 0.386719C7.76562 0.234375 8.30859 0.125 8.86719 0.0625C9.23828 0.0195312 9.61719 0 10 0C10.1641 0 10.3242 0.00390625 10.4883 0.0117188C15.7812 0.265625 20 4.64062 20 10Z" fill="#F1F1F1"/>
<path d="M7.15627 10.3711C5.57033 10.3711 4.28907 11.6523 4.31251 13.2266C4.32814 14.2344 4.88282 15.1094 5.69923 15.5977C5.42189 15.1719 5.25782 14.668 5.25001 14.125C5.22657 12.5547 6.50783 11.2734 8.09377 11.2734C8.40627 11.2734 8.70705 11.3242 8.9883 11.4141V8.26953C8.69533 8.22656 8.39455 8.20312 8.09377 8.20312C8.07814 8.20312 8.06642 8.20312 8.0508 8.20312V10.5156C7.76955 10.4219 7.46877 10.3711 7.15627 10.3711Z" fill="#F00044"/>
<path d="M14.0117 0.9375H13.9883H13.1758C13.4102 2.11328 14.0703 3.13672 14.9922 3.83203C14.3867 3.03125 14.0195 2.03125 14.0117 0.9375Z" fill="#F00044"/>
<path d="M18.793 8.79297V5.72656C18.4844 5.72656 18.1876 5.69531 17.8946 5.64062V7.89063C16.8321 7.89063 15.8008 7.68359 14.8321 7.26953C14.2071 7.00391 13.6251 6.66406 13.0899 6.25391L13.1055 13.2031C13.0977 14.7656 12.4805 16.2305 11.3633 17.3359C10.4532 18.2344 9.30084 18.8086 8.05084 18.9922C7.75787 19.0352 7.45709 19.0586 7.15631 19.0586C6.41022 19.0586 5.68756 18.9219 5.01178 18.668C5.29694 18.832 5.5899 18.9844 5.89459 19.1211C6.63287 19.4531 7.41803 19.6992 8.23834 19.8438C8.41022 19.875 8.58209 19.8984 8.75787 19.9219C8.836 19.9141 8.91022 19.9023 8.98834 19.8906C10.2383 19.707 11.3907 19.1328 12.3008 18.2344C13.418 17.1289 14.0352 15.6641 14.043 14.1016L13.9883 7.15234C14.5196 7.5625 15.1016 7.90625 15.7305 8.16797C16.6993 8.58203 17.7344 8.79297 18.793 8.79297Z" fill="#F00044"/>
<path d="M2.94141 9.03125C1.83594 10.125 1.20703 11.625 1.20703 13.1836C1.20703 14.0586 1.40234 14.9063 1.76563 15.6758C2.13672 16.2149 2.5625 16.7188 3.03125 17.1719C2.45312 16.2539 2.14453 15.1914 2.14453 14.082C2.14453 12.5234 2.77344 11.0234 3.87891 9.92579C4.99219 8.82032 6.47266 8.20703 8.05078 8.19531V7.36328C7.75781 7.32031 7.45703 7.29688 7.15625 7.29688C5.5625 7.30078 4.06641 7.91406 2.94141 9.03125Z" fill="#08FFF9"/>
<path d="M17.8945 5.63674V4.80081H17.8867C16.8008 4.80081 15.8008 4.44143 14.9961 3.83206C15.6953 4.75393 16.7188 5.41018 17.8945 5.63674Z" fill="#08FFF9"/>
<path d="M7.93359 16.8867C8.30468 16.9062 8.66015 16.8555 8.98828 16.75C10.1211 16.3789 10.9375 15.3242 10.9375 14.082L10.9414 9.43359V0.9375H13.1758C13.1172 0.644531 13.0859 0.347656 13.082 0.0390625H9.99999V8.52734L9.99609 13.1758C9.99609 14.418 9.17968 15.4727 8.04687 15.8438C7.71875 15.9531 7.36328 16.0039 6.99218 15.9805C6.51953 15.9531 6.07812 15.8125 5.69531 15.5859C6.17969 16.332 7 16.8359 7.93359 16.8867Z" fill="#08FFF9"/>
<path d="M17.8945 7.89456V5.64066C16.7188 5.41409 15.6953 4.75784 14.9961 3.83597C14.0742 3.14066 13.4141 2.11722 13.1797 0.941437H10.9453V9.42972L10.9414 14.0782C10.9414 15.3203 10.125 16.375 8.99219 16.7461C8.66406 16.8555 8.30859 16.9063 7.9375 16.8828C7 16.8321 6.18359 16.3282 5.70312 15.5899C4.88672 15.1055 4.33203 14.2266 4.31641 13.2188C4.29297 11.6485 5.57422 10.3672 7.16016 10.3672C7.47266 10.3672 7.77344 10.418 8.05469 10.5078V8.19534C6.47656 8.20706 4.99609 8.82034 3.88281 9.92581C2.77344 11.0235 2.14453 12.5235 2.14453 14.0821C2.14453 15.1914 2.45312 16.2539 3.03125 17.1719C3.625 17.75 4.28906 18.25 5.01172 18.668C5.6875 18.9258 6.41016 19.0586 7.15625 19.0586C7.45703 19.0586 7.75781 19.0352 8.05078 18.9922C9.30078 18.8086 10.4531 18.2344 11.3633 17.336C12.4805 16.2305 13.0977 14.7657 13.1055 13.2032L13.0898 6.25394C13.6211 6.66409 14.2031 7.00784 14.832 7.26956C15.8008 7.68362 16.8359 7.89456 17.8945 7.89456Z" fill="black"/>
</svg>
