<svg width="20" height="20" viewBox="0 0 20 20" fill="none" xmlns="http://www.w3.org/2000/svg">
<path d="M10 20C15.5228 20 20 15.5228 20 10C20 4.47715 15.5228 0 10 0C4.47715 0 0 4.47715 0 10C0 15.5228 4.47715 20 10 20Z" fill="#4D76A1"/>
<path fill-rule="evenodd" clip-rule="evenodd" d="M9.62231 14.3859H10.4072C10.4072 14.3859 10.6443 14.3599 10.7653 14.2294C10.8767 14.1096 10.8732 13.8846 10.8732 13.8846C10.8732 13.8846 10.8578 12.8315 11.3466 12.6764C11.8285 12.5236 12.4472 13.6943 13.103 14.1444C13.5989 14.485 13.9758 14.4103 13.9758 14.4103L15.7293 14.3859C15.7293 14.3859 16.6466 14.3294 16.2117 13.6082C16.176 13.5492 15.9584 13.0746 14.9079 12.0995C13.8084 11.079 13.9556 11.2441 15.2801 9.47878C16.0867 8.4037 16.4092 7.74734 16.3085 7.46623C16.2124 7.19848 15.6191 7.26925 15.6191 7.26925L13.6447 7.28155C13.6447 7.28155 13.4984 7.26159 13.3898 7.32647C13.2838 7.39011 13.2155 7.53842 13.2155 7.53842C13.2155 7.53842 12.903 8.37036 12.4862 9.07787C11.6071 10.5708 11.2555 10.6496 11.1118 10.5569C10.7776 10.3408 10.861 9.68895 10.861 9.22583C10.861 7.77907 11.0805 7.17584 10.4338 7.01969C10.2191 6.96782 10.0612 6.93359 9.51233 6.92806C8.80785 6.92076 8.21157 6.9302 7.87394 7.09563C7.64934 7.20561 7.47607 7.45072 7.5816 7.4648C7.71208 7.48227 8.00764 7.54448 8.16433 7.75786C8.36665 8.03309 8.35952 8.6513 8.35952 8.6513C8.35952 8.6513 8.47575 10.3544 8.08803 10.566C7.82189 10.7111 7.45682 10.4148 6.67301 9.0604C6.27139 8.36662 5.96817 7.59974 5.96817 7.59974C5.96817 7.59974 5.9097 7.45642 5.80542 7.37977C5.67886 7.2869 5.50202 7.25731 5.50202 7.25731L3.62584 7.26961C3.62584 7.26961 3.34419 7.27745 3.2408 7.39992C3.14882 7.50883 3.23349 7.73415 3.23349 7.73415C3.23349 7.73415 4.70235 11.1706 6.36551 12.9024C7.89052 14.4902 9.62231 14.3859 9.62231 14.3859Z" fill="white"/>
</svg>
