<svg width="98" height="16" viewBox="0 0 98 16" fill="none" xmlns="http://www.w3.org/2000/svg">
<path d="M5.44014 13.2414H7.37051V2.50482H4.5627C1.73893 2.50482 0.255256 3.91061 0.255256 5.98069C0.255256 7.63365 1.06888 8.6069 2.52065 9.61103L0 13.2414H2.08991L4.89772 9.17848L3.92456 8.5451C2.744 7.77269 2.16967 7.17021 2.16967 5.87255C2.16967 4.72937 2.99926 3.95696 4.57865 3.95696H5.44014V13.2414ZM30.7902 12.7161V11.2177C30.2 11.6039 29.2108 11.9437 28.2855 11.9437C26.8976 11.9437 26.3711 11.3103 26.2914 10.0127H30.87V9.03945C30.87 6.336 29.6416 5.31641 27.7431 5.31641C25.4299 5.31641 24.3291 7.03117 24.3291 9.37931C24.3291 12.0828 25.7011 13.3959 28.126 13.3959C29.3385 13.3959 30.2319 13.0869 30.7902 12.7161ZM42.6596 13.3959C43.5371 13.3959 44.1593 13.2414 44.6219 12.917V11.4185C44.1433 11.7429 43.569 11.9437 42.7713 11.9437C41.4153 11.9437 40.8569 10.9241 40.8569 9.31752C40.8569 7.63366 41.5429 6.76855 42.7873 6.76855C43.5211 6.76855 44.239 7.01572 44.6219 7.24745V5.68717C44.2231 5.47089 43.5211 5.31641 42.5799 5.31641C40.1549 5.31641 38.8946 7.00028 38.8946 9.36386C38.8946 11.9592 40.123 13.3959 42.6596 13.3959ZM13.4009 5.47089V8.5451H10.8643V5.47089H8.96586V13.2414H10.8643V9.99724H13.4009V13.2414H15.2994V5.47089H13.4009ZM23.8664 11.7892H23.0209V5.47089H17.485V6.13517C17.485 8.03531 17.3574 10.4916 16.6874 11.7892H16.0971V15.0179H17.852V13.2414H22.1115V15.0179H23.8664V11.7892ZM36.8526 13.2414H39.0063L35.9592 9.0549L38.6394 5.47089H36.7249L34.0448 9.0549V5.47089H32.1463V13.2414H34.0448V9.42565L36.8526 13.2414ZM27.7112 6.76855C28.6525 6.76855 28.9396 7.52552 28.9396 8.49876V8.65324H26.2914C26.3392 7.41738 26.8019 6.76855 27.7112 6.76855ZM21.1224 11.7892H18.4422C18.9687 10.6152 19.1123 8.49876 19.1123 7.15476V6.92303H21.1224V11.7892Z" fill="black"/>
<path d="M68.4655 15.4814V13.2414H74.0333V15.4814H75.8361V11.7892H74.7991V2.50482H68.3379L68.1784 6.92304C68.0986 9.472 67.8912 10.9705 67.3807 11.7892H66.6628V15.4814H68.4655ZM69.8694 7.17021L69.9811 3.95696H72.8687V11.7892H69.1994C69.5344 11.0477 69.7897 9.71917 69.8694 7.17021Z" fill="black"/>
<path d="M79.0683 11.9437C78.0952 11.9437 77.138 11.6039 76.6274 11.2331V12.7316C76.9944 13.0251 77.9197 13.3959 79.2917 13.3959C81.3178 13.3959 82.3867 12.5153 82.3867 10.955C82.3867 10.0436 81.7964 9.42565 80.7434 9.20938C81.7326 8.90041 82.1473 8.22069 82.1473 7.35558C82.1473 6.04248 81.0785 5.31641 79.3555 5.31641C78.1111 5.31641 77.2975 5.68717 76.8348 5.96524V7.46372C77.3453 7.13931 78.0473 6.76855 79.0843 6.76855C79.7862 6.76855 80.2329 7.09296 80.2329 7.66455C80.2329 8.26703 79.85 8.59145 79.0683 8.59145H77.8718V9.98179H79.0683C80.0415 9.98179 80.4244 10.2599 80.4244 10.9396C80.4244 11.5575 79.9617 11.9437 79.0683 11.9437Z" fill="black"/>
<path d="M89.5697 12.7161V11.2177C88.9795 11.6039 87.9904 11.9437 87.065 11.9437C85.6771 11.9437 85.1506 11.3103 85.0709 10.0127H89.6495V9.03945C89.6495 6.336 88.4211 5.31641 86.5226 5.31641C84.2094 5.31641 83.1086 7.03117 83.1086 9.37931C83.1086 12.0828 84.4806 13.3959 86.9055 13.3959C88.118 13.3959 89.0114 13.0869 89.5697 12.7161ZM86.4907 6.76855C87.432 6.76855 87.7191 7.52552 87.7191 8.49876V8.65324H85.0709C85.1187 7.41738 85.5814 6.76855 86.4907 6.76855Z" fill="black"/>
<path d="M95.3563 5.47089V8.5451H92.8197V5.47089H90.9212V13.2414H92.8197V9.99724H95.3563V13.2414H97.2547V5.47089H95.3563Z" fill="black"/>
<path d="M48.4302 7.72414C48.4302 3.76293 51.7465 0.551727 55.8372 0.551727C59.9281 0.551727 63.2442 3.76293 63.2442 7.72414C63.2442 11.6854 59.9281 14.8966 55.8372 14.8966C51.7465 14.8966 48.4302 11.6854 48.4302 7.72414Z" fill="black"/>
<path fill-rule="evenodd" clip-rule="evenodd" d="M55.6873 0.551727C55.6523 3.5025 55.4531 5.15391 54.318 6.25302C53.183 7.35217 51.4775 7.54511 48.4302 7.57898V8.00723C51.4775 8.04111 53.183 8.23405 54.318 9.33319C55.4352 10.4151 55.6458 12.032 55.6855 14.8966H56.1313C56.171 12.032 56.3816 10.4151 57.4987 9.33319C58.616 8.25131 60.286 8.04734 63.2442 8.00894V7.57727C60.286 7.53882 58.616 7.3349 57.4987 6.25302C56.3638 5.15391 56.1645 3.5025 56.1296 0.551727H55.6873Z" fill="white"/>
</svg>
